            <svg width="135" height="7" viewBox="0 0 135 7" fill="none" xmlns="http://www.w3.org/2000/svg">
                <path d="M124.187 0.840335C121.238 0.654811 118.284 0.52247 115.333 0.363186C114.359 0.31114 113.382 0.307942 112.408 0.280834C110.294 0.222824 108.18 0.16476 106.066 0.10675C104.889 0.0741119 103.711 0.034101 102.534 0.00975847C102.193 0.00254774 101.852 0 101.511 0C100.744 0 99.9767 0.0125237 99.2105 0.0139875C95.7233 0.0177827 92.2366 0.0222292 88.7489 0.0265121C87.9191 0.0275421 87.0882 0.048738 86.2589 0.0612073C84.2033 0.0893993 82.1488 0.11819 80.0932 0.148063C77.7747 0.18005 75.4553 0.193601 73.1374 0.255189C69.3854 0.355162 65.6339 0.454703 61.8818 0.55511C59.7102 0.612036 57.5366 0.645106 55.3655 0.738248C51.624 0.898399 47.8831 1.05719 44.1417 1.21539C42.0977 1.3016 40.0516 1.37381 38.0092 1.49623C34.1406 1.7273 30.2724 1.95939 26.4033 2.19192C24.3361 2.31602 22.2667 2.40769 20.204 2.59685C16.3526 2.94925 12.5009 3.30224 8.6494 3.65507C7.81742 3.73114 6.98509 3.80693 6.15221 3.88381C4.48932 4.03567 2.83173 4.27199 1.17338 4.47318C1.06957 4.48907 0.965298 4.50371 0.861081 4.51872C0.662836 4.57885 0.490418 4.68625 0.343626 4.84358C0.124698 5.07887 0 5.40075 0 5.73477C0 6.06765 0.124698 6.39126 0.343626 6.62612C0.542678 6.84087 0.881764 7.03062 1.17338 6.99587C3.1744 6.75363 5.17249 6.49649 7.179 6.31373C9.03797 6.14371 10.8967 5.97445 12.7556 5.80525C14.7847 5.62038 16.8131 5.4355 18.8414 5.25128C19.6584 5.17652 20.4777 5.07779 21.2961 5.02889C24.4593 4.84022 27.6223 4.65426 30.7859 4.46787C32.7573 4.35076 34.7298 4.23409 36.7012 4.11699C37.5158 4.06868 38.3305 4.00856 39.1452 3.97381C42.2798 3.83827 45.4149 3.71525 48.549 3.58628C50.4492 3.50766 52.3489 3.43063 54.2486 3.35201C54.8873 3.32556 55.5259 3.29254 56.1645 3.27557C59.5498 3.19148 62.9341 3.10913 66.3189 3.02672C68.209 2.98015 70.0987 2.93396 71.9888 2.88739C72.6622 2.87064 73.3347 2.8463 74.0076 2.83908C77.4983 2.80016 80.9885 2.76221 84.4793 2.72372C86.6574 2.69932 88.8331 2.67709 91.0113 2.68305C94.7179 2.69276 98.425 2.70208 102.131 2.71119C102.863 2.71287 103.594 2.74594 104.324 2.76882C106.37 2.83317 108.417 2.89775 110.462 2.96215C111.997 3.01106 113.532 3.05936 115.067 3.10767C116.155 3.14171 117.243 3.229 118.331 3.29254C121.533 3.47844 124.735 3.67031 127.937 3.88506C128.75 3.9397 129.563 4.00601 130.376 4.06998C131.246 4.13775 132.12 4.20379 132.988 4.30951C133.124 4.33342 133.258 4.36052 133.393 4.39186C133.735 4.46939 134.064 4.44819 134.372 4.25421C134.656 4.07589 134.868 3.77917 134.956 3.43821C135.139 2.72051 134.735 1.95771 134.068 1.75923C133.485 1.58579 132.879 1.51634 132.278 1.45134C131.866 1.40623 131.455 1.36134 131.043 1.31727C130.251 1.23171 129.453 1.18829 128.66 1.12394C127.171 1.00342 125.678 0.933531 124.187 0.840335Z" fill="#FFD803" />
            </svg>