       <svg width="23" height="16" viewBox="0 0 23 16" fill="none" xmlns="http://www.w3.org/2000/svg">
                <path d="M20.5935 7.1331C17.9698 8.95087 15.3332 10.7513 12.727 12.5942C12.3625 12.8518 11.9932 13.1132 11.6588 13.4105C11.6308 13.4363 11.603 13.4615 11.5752 13.4867C11.417 13.5958 11.2424 13.658 11.0517 13.6736C10.7778 13.694 10.5004 13.6059 10.289 13.4292C10.071 13.2465 9.93249 12.9787 9.9113 12.6957C9.89135 12.4389 9.9695 12.1226 10.1548 11.9329C10.7097 11.3646 11.3738 10.913 12.0233 10.4613C12.6617 10.0173 13.3009 9.57318 13.9404 9.12973C15.1431 8.29644 16.3459 7.46312 17.549 6.62961C18.156 6.20905 18.7634 5.78825 19.3704 5.36768C19.8518 5.03417 20.5315 5.15783 20.8647 5.63882C21.1983 6.12038 21.0749 6.79959 20.5935 7.1331Z" fill="#FFD803" />
                <path d="M10.5529 2.85106C9.89831 4.00357 9.23228 5.14902 8.56718 6.29513C8.30795 6.74121 8.02839 7.17605 7.75914 7.61606C7.52633 7.99678 7.28598 8.37286 7.04741 8.74988C6.90224 8.98013 6.75268 9.2082 6.59987 9.43346C6.51064 9.56515 6.42293 9.69816 6.33099 9.82826C6.27531 9.90737 6.2195 9.98667 6.16382 10.0658C6.13638 10.1035 6.11082 10.1425 6.08502 10.1814C6.04699 10.2384 6.00883 10.2957 5.96715 10.3505C5.95455 10.3592 5.94159 10.3679 5.92806 10.376C5.68406 10.5385 5.6521 10.895 5.81599 11.1796C5.8848 11.2973 5.97833 11.3972 6.0955 11.479C6.25085 11.5863 6.49127 11.6763 6.66403 11.643C6.76356 11.6234 6.86303 11.6048 6.9601 11.5787C7.06208 11.5515 7.17466 11.4643 7.25644 11.4021C7.34972 11.3313 7.42246 11.2345 7.49997 11.1489C7.5287 11.1168 7.54622 11.0975 7.56805 11.0674C7.63078 10.9811 7.69682 10.8965 7.75757 10.8086C7.76452 10.7985 7.77147 10.7884 7.77832 10.778C7.90994 10.5824 8.04145 10.3865 8.16907 10.1882C8.45641 9.74357 8.73763 9.29527 9.01885 8.84697C9.50347 8.07257 9.97021 7.28693 10.4287 6.49615C10.9441 5.60801 11.4566 4.71846 11.9638 3.82554C12.0575 3.66075 12.0974 3.488 12.0362 3.27905C11.9781 3.0812 11.8392 2.89579 11.6529 2.7671C11.4666 2.6384 11.2438 2.57403 11.0384 2.58985C10.8451 2.60476 10.6404 2.69683 10.5529 2.85106Z" fill="#FFD803" />
                <path d="M3.28753 0.739526C2.84817 2.76754 2.39205 4.79167 1.91244 6.81195C1.82119 7.19606 1.72828 7.57965 1.63984 7.96426C1.59418 8.16293 1.5457 8.36108 1.50254 8.56042C1.47848 8.67053 1.45475 8.78048 1.43097 8.89064C1.42196 8.93065 1.41521 8.97107 1.40898 9.0118C1.36264 9.03607 1.31981 9.06503 1.2811 9.09859C1.14567 9.21732 1.08485 9.38077 1.11479 9.54638C1.14224 9.69531 1.25375 9.8753 1.42562 9.97312C1.51509 10.0242 1.61271 10.0865 1.70752 10.1242C1.84935 10.1805 2.04351 10.2196 2.1961 10.2165C2.46911 10.2112 2.71632 10.1025 2.86957 9.94809C3.0235 9.79321 3.08153 9.60982 3.11304 9.41371C3.12281 9.35504 3.13866 9.29662 3.15129 9.23826C3.20136 9.0169 3.25118 8.79528 3.30181 8.57403C3.41072 8.09745 3.52359 7.62158 3.6364 7.14592C3.81429 6.39354 3.99788 5.64176 4.16654 4.88728C4.45194 3.60979 4.73738 2.3321 5.01464 1.05292C5.01554 1.04796 5.01641 1.04321 5.01731 1.03824C5.07901 0.699823 4.72154 0.345569 4.26615 0.262934C3.7865 0.175899 3.36175 0.396327 3.28753 0.739526Z" fill="#FFD803" />
            </svg>